<svg width="17" height="14" fill="none" xmlns="http://www.w3.org/2000/svg"><g clip-path="url(#clip0)"><path d="M6.844 6.486c.87-.416 1.323-1.045 1.323-2.024 0-1.93-1.438-2.4-3.098-2.4H.5v9.69h4.698c1.76 0 3.415-.845 3.415-2.813 0-1.217-.577-2.117-1.77-2.453zM2.63 3.716h2c.768 0 1.46.216 1.46 1.107 0 .823-.539 1.154-1.299 1.154H2.63V3.716zm2.278 6.39H2.63V7.437h2.322c.937 0 1.53.391 1.53 1.384 0 .979-.707 1.285-1.574 1.285zm9.802-6.581h-3.929V2.57h3.93v.955zm1.54 4.82c0-2.075-1.214-3.806-3.415-3.806-2.139 0-3.59 1.608-3.59 3.713 0 2.185 1.375 3.683 3.59 3.683 1.676 0 2.761-.754 3.284-2.36h-1.701c-.183.6-.938.917-1.523.917-1.13 0-1.723-.662-1.723-1.786h5.062c.008-.115.016-.238.016-.36zm-5.075-.853c.063-.921.675-1.498 1.6-1.498.968 0 1.454.568 1.536 1.498h-3.136z" fill="#000"/></g><defs><clipPath id="clip0"><path fill="#fff" d="M.5 0h15.75v14H.5z"/></clipPath></defs></svg>