<svg width="13" height="14" fill="none" xmlns="http://www.w3.org/2000/svg"><g clip-path="url(#clip0)"><path d="M6.878 3.855a3.137 3.137 0 00-3.142 3.142 3.137 3.137 0 003.142 3.142 3.137 3.137 0 003.142-3.142 3.137 3.137 0 00-3.142-3.142zm0 5.185a2.046 2.046 0 01-2.043-2.043c0-1.126.916-2.042 2.043-2.042 1.126 0 2.042.916 2.042 2.042A2.046 2.046 0 016.878 9.04zm4.003-5.313a.731.731 0 01-.733.733.733.733 0 11.733-.733zm2.08.744c-.046-.982-.27-1.851-.99-2.568-.716-.716-1.585-.94-2.567-.99C8.393.856 5.36.856 4.348.913 3.37.96 2.5 1.184 1.781 1.9c-.72.717-.94 1.586-.99 2.568-.057 1.012-.057 4.044 0 5.056.046.982.27 1.851.99 2.567.719.717 1.586.941 2.567.99 1.012.058 4.045.058 5.056 0 .982-.046 1.851-.27 2.568-.99.716-.716.94-1.585.99-2.567.057-1.012.057-4.042 0-5.053zm-1.306 6.138a2.068 2.068 0 01-1.165 1.165c-.807.32-2.72.246-3.612.246-.892 0-2.808.071-3.612-.246A2.068 2.068 0 012.1 10.61c-.32-.806-.246-2.72-.246-3.612 0-.891-.071-2.808.246-3.612A2.068 2.068 0 013.266 2.22c.806-.32 2.72-.246 3.612-.246.891 0 2.808-.07 3.612.246a2.07 2.07 0 011.165 1.165c.32.807.246 2.72.246 3.612 0 .892.074 2.808-.246 3.612z" fill="#000"/></g><defs><clipPath id="clip0"><path fill="#fff" d="M.75 0H13v14H.75z"/></clipPath></defs></svg>