<svg width="11" height="14" fill="none" xmlns="http://www.w3.org/2000/svg"><g clip-path="url(#clip0)"><path d="M5.578.178C2.773.178 0 2.048 0 5.075 0 7 1.083 8.094 1.74 8.094c.27 0 .426-.755.426-.968 0-.255-.648-.796-.648-1.854 0-2.199 1.673-3.757 3.839-3.757 1.862 0 3.24 1.058 3.24 3.002 0 1.452-.583 4.176-2.47 4.176-.68 0-1.263-.493-1.263-1.198 0-1.034.722-2.034.722-3.1 0-1.811-2.567-1.483-2.567.705 0 .459.057.968.262 1.386-.377 1.624-1.148 4.044-1.148 5.718 0 .516.074 1.025.123 1.542.093.104.046.093.189.04 1.378-1.886 1.328-2.255 1.952-4.724.336.64 1.206.984 1.895.984 2.904 0 4.208-2.83 4.208-5.381C10.5 1.95 8.154.178 5.578.178z" fill="#000"/></g><defs><clipPath id="clip0"><path fill="#fff" d="M0 0h10.5v14H0z"/></clipPath></defs></svg>