<svg width="16" height="14" fill="none" xmlns="http://www.w3.org/2000/svg"><g clip-path="url(#clip0)"><path d="M15.28 3.393a1.876 1.876 0 00-1.32-1.329c-1.165-.314-5.835-.314-5.835-.314s-4.67 0-5.834.314A1.876 1.876 0 00.97 3.393C.657 4.565.657 7.01.657 7.01s0 2.445.312 3.617a1.848 1.848 0 001.32 1.308c1.165.314 5.835.314 5.835.314s4.67 0 5.834-.314a1.848 1.848 0 001.32-1.308c.313-1.172.313-3.617.313-3.617s0-2.446-.312-3.618zM6.598 9.23V4.79L10.5 7.01 6.598 9.23z" fill="#000"/></g><defs><clipPath id="clip0"><path fill="#fff" d="M.25 0H16v14H.25z"/></clipPath></defs></svg>