<svg aria-hidden="true" style="position: absolute; width: 0; height: 0; overflow: hidden;" version="1.1" xmlns="http://www.w3.org/2000/svg" xmlns:xlink="http://www.w3.org/1999/xlink">
<defs>
<symbol id="icon-behance" viewBox="0 0 39 32">
<title>Behance</title>
<path d="M15.643 14.825c1.988-0.95 3.025-2.388 3.025-4.625 0-4.412-3.287-5.487-7.081-5.487h-10.444v22.15h10.738c4.025 0 7.806-1.931 7.806-6.431 0-2.781-1.319-4.838-4.044-5.606zM6.012 8.494h4.569c1.756 0 3.338 0.494 3.338 2.531 0 1.881-1.231 2.637-2.969 2.637h-4.938v-5.169zM11.218 23.1h-5.206v-6.1h5.306c2.144 0 3.5 0.894 3.5 3.163 0 2.238-1.619 2.937-3.6 2.937zM33.624 8.056h-8.981v-2.181h8.981v2.181zM37.143 19.075c0-4.744-2.775-8.7-7.806-8.7-4.888 0-8.206 3.675-8.206 8.488 0 4.994 3.144 8.419 8.206 8.419 3.831 0 6.312-1.725 7.506-5.394h-3.888c-0.419 1.369-2.144 2.094-3.481 2.094-2.581 0-3.937-1.513-3.937-4.081h11.569c0.019-0.262 0.038-0.544 0.038-0.825zM25.543 17.125c0.144-2.106 1.544-3.425 3.656-3.425 2.213 0 3.325 1.3 3.512 3.425h-7.169z"></path>
</symbol>
<symbol id="icon-facebook" viewBox="0 0 21 32">
<title>Facebook</title>
<path d="M17.446 18l0.889-5.791h-5.557v-3.758c0-1.584 0.776-3.129 3.265-3.129h2.526v-4.931c0 0-2.293-0.391-4.484-0.391-4.576 0-7.567 2.774-7.567 7.795v4.414h-5.087v5.791h5.087v14h6.261v-14h4.668z"></path>
</symbol>
<symbol id="icon-instagram" viewBox="0 0 30 32">
<title>Instagram</title>
<path d="M15.72 8.812c-3.975 0-7.181 3.206-7.181 7.181s3.206 7.181 7.181 7.181c3.975 0 7.181-3.206 7.181-7.181s-3.206-7.181-7.181-7.181zM15.72 20.663c-2.569 0-4.669-2.094-4.669-4.669s2.094-4.669 4.669-4.669c2.575 0 4.669 2.094 4.669 4.669s-2.1 4.669-4.669 4.669zM24.87 8.519c0 0.931-0.75 1.675-1.675 1.675-0.931 0-1.675-0.75-1.675-1.675s0.75-1.675 1.675-1.675c0.925 0 1.675 0.75 1.675 1.675zM29.627 10.219c-0.106-2.244-0.619-4.231-2.262-5.869-1.638-1.638-3.625-2.15-5.869-2.263-2.313-0.131-9.244-0.131-11.556 0-2.237 0.106-4.225 0.619-5.869 2.256s-2.15 3.625-2.263 5.869c-0.131 2.313-0.131 9.244 0 11.556 0.106 2.244 0.619 4.231 2.263 5.869s3.625 2.15 5.869 2.262c2.313 0.131 9.244 0.131 11.556 0 2.244-0.106 4.231-0.619 5.869-2.262 1.637-1.637 2.15-3.625 2.262-5.869 0.131-2.313 0.131-9.238 0-11.55zM26.639 24.25c-0.488 1.225-1.431 2.169-2.663 2.662-1.844 0.731-6.219 0.563-8.256 0.563s-6.419 0.163-8.256-0.563c-1.225-0.488-2.169-1.431-2.662-2.662-0.731-1.844-0.563-6.219-0.563-8.256s-0.162-6.419 0.563-8.256c0.487-1.225 1.431-2.169 2.662-2.662 1.844-0.731 6.219-0.563 8.256-0.563s6.419-0.162 8.256 0.563c1.225 0.487 2.169 1.431 2.663 2.662 0.731 1.844 0.563 6.219 0.563 8.256s0.169 6.419-0.563 8.256z"></path>
</symbol>
<symbol id="icon-pinterest" viewBox="0 0 25 32">
<title>Pinterest</title>
<path d="M12.75 0.406c-6.412 0-12.75 4.275-12.75 11.194 0 4.4 2.475 6.9 3.975 6.9 0.619 0 0.975-1.725 0.975-2.212 0-0.581-1.481-1.819-1.481-4.238 0-5.025 3.825-8.588 8.775-8.588 4.256 0 7.406 2.419 7.406 6.862 0 3.319-1.331 9.544-5.644 9.544-1.556 0-2.887-1.125-2.887-2.738 0-2.363 1.65-4.65 1.65-7.088 0-4.138-5.869-3.388-5.869 1.613 0 1.050 0.131 2.213 0.6 3.169-0.862 3.712-2.625 9.244-2.625 13.069 0 1.181 0.169 2.344 0.281 3.525 0.213 0.238 0.106 0.213 0.431 0.094 3.15-4.312 3.037-5.156 4.463-10.8 0.769 1.462 2.756 2.25 4.331 2.25 6.638 0 9.619-6.469 9.619-12.3 0-6.206-5.363-10.256-11.25-10.256z"></path>
</symbol>
<symbol id="icon-youtube" viewBox="0 0 37 32">
<title>YouTube</title>
<path d="M34.925 7.755c-0.392-1.478-1.549-2.642-3.018-3.037-2.662-0.718-13.336-0.718-13.336-0.718s-10.674 0-13.336 0.718c-1.469 0.395-2.625 1.559-3.018 3.037-0.713 2.679-0.713 8.269-0.713 8.269s0 5.59 0.713 8.269c0.393 1.478 1.549 2.594 3.018 2.989 2.662 0.718 13.336 0.718 13.336 0.718s10.674 0 13.336-0.718c1.469-0.395 2.625-1.511 3.018-2.989 0.713-2.679 0.713-8.269 0.713-8.269s0-5.59-0.713-8.269zM15.081 21.099v-10.15l8.921 5.075-8.921 5.075z"></path>
</symbol>
<symbol id="icon-arrow" viewBox="0 0 19 32">
<path d="M0 3.664l11.872 11.872-11.872 11.872 3.664 3.664 15.536-15.536-15.536-15.536-3.664 3.664z"></path>
</symbol>
<symbol id="icon-long-arrow" viewBox="0 0 32 32">
<path d="M10.438 5.089c0.451-0.451 1.161-0.451 1.613 0 0.436 0.436 0.436 1.161 0 1.596l-8.176 8.176h26.981c0.629 0 1.145 0.5 1.145 1.129s-0.516 1.145-1.145 1.145h-26.981l8.176 8.161c0.436 0.451 0.436 1.178 0 1.613-0.451 0.451-1.161 0.451-1.613 0l-10.112-10.112c-0.436-0.436-0.436-1.161 0-1.596l10.112-10.112z"></path>
</symbol>
<symbol id="icon-project" viewBox="0 0 32 32">
<path d="M31.467 0h-24c-0.295 0-0.533 0.239-0.533 0.533v8h1.067v-7.467h22.933v29.333c0.005 0.28-0.211 0.515-0.491 0.533-0.046 0-0.092-0.004-0.138-0.005-0.094-0.003-0.189-0.005-0.282-0.014-0.008 0-0.015 0-0.023-0.003-1.742-0.19-3.118-1.565-3.31-3.307 0-0.007-0.003-0.015-0.004-0.023-0.013-0.127-0.019-0.254-0.019-0.381v-1.067c0-0.295-0.239-0.533-0.533-0.533h-18.133v-9.6h-1.067v9.6h-4.267c-0.295 0-0.533 0.239-0.533 0.533v1.067c0.003 2.65 2.15 4.797 4.8 4.8h23.52c0.865-0.023 1.553-0.734 1.547-1.6v-29.867c0-0.295-0.239-0.533-0.533-0.533zM6.933 30.933c-2.061-0.002-3.731-1.672-3.733-3.733v-0.533h22.4v0.533c0.001 0.176 0.011 0.352 0.030 0.526 0.005 0.046 0.014 0.091 0.020 0.137 0.018 0.129 0.039 0.258 0.067 0.384 0.010 0.044 0.022 0.088 0.033 0.132 0.033 0.129 0.069 0.255 0.112 0.38 0.012 0.036 0.025 0.071 0.038 0.107 0.049 0.132 0.103 0.261 0.164 0.389 0.013 0.026 0.025 0.053 0.037 0.077 0.067 0.135 0.14 0.266 0.22 0.394 0.011 0.017 0.020 0.035 0.031 0.053 0.087 0.136 0.181 0.268 0.281 0.395l0.017 0.023c0.116 0.146 0.241 0.286 0.373 0.418 0.115 0.114 0.234 0.22 0.357 0.32l-20.449-0.002z"></path>
<path d="M17.6 14.933c0.141 0 0.277-0.056 0.377-0.156l2.133-2.133c0.208-0.208 0.208-0.546 0-0.754l-2.133-2.133c-0.1-0.1-0.236-0.156-0.377-0.156h-14.933c-1.473 0-2.667 1.194-2.667 2.667s1.194 2.667 2.667 2.667h14.933zM17.462 10.75l1.517 1.517-1.517 1.517-0.379-1.517 0.379-1.517zM4.267 10.667h12.117l-0.267 1.067h-10.784v1.067h10.784l0.267 1.067h-12.117v-3.2zM1.067 12.267c0-0.884 0.716-1.6 1.6-1.6h0.533v3.2h-0.533c-0.884 0-1.6-0.716-1.6-1.6z"></path>
<path d="M12.267 22.933h16c0.295 0 0.533-0.239 0.533-0.533v-16c-0-0.295-0.239-0.533-0.533-0.533-0.141 0-0.277 0.056-0.377 0.156l-16 16c-0.208 0.208-0.208 0.546 0 0.754 0.1 0.1 0.236 0.156 0.377 0.156zM27.733 7.687v1.379h-1.067v1.067h1.067v1.067h-1.067v1.067h1.067v1.067h-1.067v1.067h1.067v1.067h-1.067v1.067h1.067v1.067h-1.067v1.067h1.067v1.067h-1.067v1.067h1.067v1.067h-1.067v-1.067h-1.067v1.067h-1.067v-1.067h-1.067v1.067h-1.067v-1.067h-1.067v1.067h-1.067v-1.067h-1.067v1.067h-1.067v-1.067h-1.067v1.067h-1.067v-1.067h-1.067v1.067h-1.379l14.179-14.179z"></path>
<path d="M19.992 19.733h5.075c0.295 0 0.533-0.239 0.533-0.533v-5.075c-0-0.295-0.239-0.533-0.533-0.533-0.141 0-0.277 0.056-0.377 0.156l-5.075 5.075c-0.208 0.208-0.208 0.546 0 0.754 0.1 0.1 0.236 0.156 0.377 0.156zM24.533 15.413v3.253h-3.253l3.253-3.253z"></path>
<path d="M13.867 3.2h10.667v1.067h-10.667v-1.067z"></path>
<path d="M12.267 5.333h13.867v1.067h-13.867v-1.067z"></path>
<path d="M9.067 16.533h3.2v1.067h-3.2v-1.067z"></path>
<path d="M9.067 18.667h2.133v1.067h-2.133v-1.067z"></path>
</symbol>
<symbol id="icon-reaction" viewBox="0 0 32 32">
<path d="M17.817 24.886c-0.239-0.247-0.633-0.255-0.882-0.017s-0.258 0.634-0.019 0.884l0.016 0.016c0.122 0.122 0.282 0.183 0.442 0.183s0.32-0.061 0.442-0.183c0.244-0.244 0.244-0.639 0.001-0.883z"></path>
<path d="M18.413 22.098c-0 0 0 0 0 0-1.051 0-1.959 0.783-2.111 1.822-0.050 0.341 0.186 0.659 0.527 0.709s0.659-0.186 0.709-0.527c0.063-0.43 0.439-0.754 0.875-0.754 0.488-0 0.884 0.397 0.884 0.884 0 0.434-0.31 0.8-0.736 0.872-0.34 0.057-0.57 0.38-0.513 0.72 0.051 0.305 0.316 0.521 0.616 0.521 0.034 0 0.069-0.003 0.104-0.009 1.031-0.173 1.779-1.058 1.779-2.105-0-1.177-0.958-2.134-2.134-2.134z"></path>
<path d="M15.749 27.373c-0.517 0-0.937 0.421-0.937 0.937s0.421 0.937 0.937 0.937 0.937-0.421 0.937-0.937-0.421-0.937-0.937-0.937z"></path>
<path d="M12.389 24.071c-0.517 0-0.937 0.421-0.937 0.937s0.421 0.937 0.937 0.937c0.517 0 0.937-0.421 0.937-0.937s-0.421-0.937-0.937-0.937z"></path>
<path d="M15.749 11.525c-0.517 0-0.937 0.421-0.937 0.937s0.421 0.937 0.937 0.937 0.937-0.421 0.937-0.937-0.421-0.937-0.937-0.937z"></path>
<path d="M14.246 15.641c-0.999 0-1.812 0.813-1.812 1.812s0.813 1.812 1.812 1.812 1.812-0.813 1.812-1.812-0.813-1.812-1.812-1.812zM14.246 18.016c-0.31 0-0.562-0.252-0.562-0.562s0.252-0.562 0.562-0.562c0.31 0 0.562 0.252 0.562 0.562s-0.252 0.562-0.562 0.562z"></path>
<path d="M28.952 13.499c0.657-0.772 1.022-1.751 1.022-2.788 0-2.378-1.934-4.312-4.312-4.312-0.003 0-0.005 0-0.008 0 0-0.015 0-0.031 0-0.046 0-2.727-2.218-4.945-4.945-4.945-0.454 0-0.901 0.061-1.335 0.183-0.935-1.017-2.236-1.591-3.633-1.591-1.79 0-3.407 0.951-4.282 2.47-0.607-0.257-1.263-0.391-1.928-0.391-2.727 0-4.945 2.218-4.945 4.945 0 0.44 0.057 0.871 0.17 1.288-2.209 0.503-3.842 2.484-3.842 4.821 0 1.819 0.974 3.45 2.529 4.316-0.207 0.528-0.314 1.093-0.314 1.664 0 2.031 1.358 3.816 3.279 4.378 0.438 4.765 4.457 8.509 9.334 8.509 5.066 0 9.206-4.040 9.369-9.067h0.754c2.88 0 5.222-2.343 5.222-5.222 0-1.689-0.8-3.238-2.134-4.212zM15.741 30.75c-4.48 0-8.124-3.645-8.124-8.124 0-0.598 0.066-1.184 0.19-1.75h13.747c0.345 0 0.625-0.28 0.625-0.625s-0.28-0.625-0.625-0.625h-13.366c0.873-2.209 2.692-3.971 5.058-4.734 0.258-0.083 0.433-0.323 0.433-0.595v-6.33h4.125v6.33c-0 0.271 0.175 0.512 0.433 0.595 3.367 1.085 5.629 4.194 5.629 7.734-0 4.48-3.645 8.124-8.124 8.124zM25.864 21.683h-0.795c-0.166-1.677-0.776-3.261-1.788-4.629-1.085-1.465-2.539-2.565-4.227-3.201v-5.887h0.437c0.345 0 0.625-0.28 0.625-0.625s-0.28-0.625-0.625-0.625h-7.499c-0.345 0-0.625 0.28-0.625 0.625s0.28 0.625 0.625 0.625h0.437v5.887c-1.688 0.636-3.143 1.736-4.227 3.201-1.107 1.495-1.732 3.25-1.823 5.1-1.19-0.515-2.001-1.704-2.001-3.042 0-0.578 0.152-1.148 0.44-1.648 0.091-0.157 0.108-0.347 0.048-0.518s-0.192-0.308-0.361-0.375c-1.422-0.561-2.342-1.91-2.342-3.438 0-1.88 1.413-3.449 3.255-3.668 0.088-0.009 0.334-0.005 0.429-0.005 0.713 0 1.404 0.207 1.996 0.588-0.93 1.111-0.874 2.773 0.17 3.817 0.122 0.122 0.282 0.183 0.442 0.183s0.32-0.061 0.442-0.183c0.244-0.244 0.244-0.64 0-0.884-0.617-0.617-0.617-1.62 0-2.236s1.62-0.617 2.236 0c0.244 0.244 0.64 0.244 0.884 0s0.244-0.64 0-0.884c-0.843-0.843-2.089-1.041-3.123-0.597-0.818-0.643-1.818-1.011-2.861-1.050-0.131-0.382-0.197-0.781-0.197-1.191 0-2.038 1.658-3.695 3.695-3.695 0.666 0 1.32 0.18 1.89 0.52 0.156 0.093 0.346 0.114 0.518 0.056s0.312-0.188 0.38-0.356c0.571-1.396 1.914-2.299 3.421-2.299 0.895 0 1.737 0.317 2.4 0.887-0.633 0.384-1.181 0.909-1.593 1.545-0.531-0.074-1.072 0.013-1.562 0.26-0.308 0.155-0.433 0.531-0.278 0.839s0.53 0.433 0.839 0.278c0.339-0.17 0.723-0.198 1.083-0.079s0.652 0.371 0.822 0.71c0.11 0.218 0.33 0.344 0.559 0.344 0.094 0 0.19-0.021 0.28-0.067 0.308-0.155 0.433-0.531 0.278-0.839-0.197-0.393-0.482-0.723-0.829-0.972 0.404-0.539 0.945-0.955 1.558-1.209 0.033-0.013 0.091-0.045 0.093-0.046 0.422-0.161 0.865-0.243 1.317-0.243 2.038 0 3.695 1.658 3.695 3.695 0 0.079-0.004 0.159-0.009 0.239-1.306 0.409-2.367 1.436-2.809 2.757-1.149 0.433-1.969 1.543-1.969 2.841 0 0.345 0.28 0.625 0.625 0.625s0.625-0.28 0.625-0.625c0-0.984 0.801-1.785 1.785-1.785s1.785 0.801 1.785 1.785c0 0.345 0.28 0.625 0.625 0.625s0.625-0.28 0.625-0.625c0-1.546-1.163-2.825-2.66-3.011 0.46-0.792 1.26-1.355 2.179-1.496 0.005-0.001 0.010-0.002 0.014-0.002 0.011-0.002 0.023-0.003 0.035-0.004 0.136-0.018 0.272-0.028 0.406-0.028 1.689 0 3.063 1.374 3.063 3.062 0 0.944-0.427 1.821-1.17 2.407-0.168 0.132-0.256 0.34-0.235 0.553s0.149 0.399 0.339 0.496c1.344 0.682 2.178 2.040 2.178 3.544 0 2.191-1.782 3.973-3.972 3.973z"></path>
</symbol>
<symbol id="icon-handshake" viewBox="0 0 32 32">
<path d="M31.467 9.6h-3.733c-0.295 0-0.533 0.239-0.533 0.533v1.067h-2.667c-0.295 0-0.533 0.239-0.533 0.533h-16c0-0.295-0.239-0.533-0.533-0.533h-2.667v-1.067c0-0.295-0.239-0.533-0.533-0.533h-3.733c-0.295 0-0.533 0.239-0.533 0.533v10.667c0 0.295 0.239 0.533 0.533 0.533h3.733c0.295 0 0.533-0.239 0.533-0.533v-1.067h2.667c0.295 0 0.533-0.239 0.533-0.533h2.643l3.876 3.876c0.622 0.624 1.632 0.625 2.256 0.002 0.001-0.001 0.001-0.001 0.002-0.002l0.381-0.379c0.2 0.201 0.473 0.314 0.756 0.313 0.284 0.001 0.556-0.112 0.756-0.314l0.751-0.747 0.373 0.37c0.2 0.201 0.472 0.314 0.756 0.313 0.284 0.001 0.557-0.112 0.757-0.314l0.751-0.747 0.373 0.37c0.2 0.201 0.472 0.314 0.756 0.313 0.284 0.001 0.556-0.111 0.756-0.313l0.756-0.757c0.39-0.398 0.41-1.029 0.046-1.452h2.453v1.067c0 0.295 0.239 0.533 0.533 0.533h3.733c0.295 0 0.533-0.239 0.533-0.533v-10.667c0-0.295-0.239-0.533-0.533-0.533zM3.733 20.267h-2.667v-9.6h2.667v9.6zM6.933 18.133h-2.133v-5.333h2.133v5.333zM23.19 21.182l-0.373-0.37c-0.2-0.201-0.472-0.313-0.756-0.313-0.284-0.001-0.557 0.112-0.757 0.313l-0.751 0.747-0.373-0.37c-0.2-0.201-0.473-0.314-0.756-0.313-0.284-0.001-0.556 0.112-0.756 0.314l-0.759 0.741c-0.424-0.396-1.083-0.391-1.501 0.010l-0.379 0.379c-0.21 0.201-0.54 0.201-0.75 0l-4.032-4.032c-0.101-0.101-0.239-0.157-0.382-0.155h-2.864v-5.333h6.713l-1.26 1.26c-0.302 0.298-0.471 0.705-0.471 1.13-0.001 0.063 0.004 0.126 0.016 0.188 0.038 0.358 0.199 0.692 0.455 0.946 0.25 0.251 0.579 0.41 0.931 0.448 0.064 0.016 0.13 0.020 0.196 0.013 0.424 0.008 0.833-0.159 1.131-0.461l1.396-1.39h1.339l5.497 5.506-0.752 0.743zM24 18.133h-0.846l-4.11-4.11c-0.1-0.1-0.236-0.156-0.377-0.156h-1.781c-0.141 0-0.277 0.056-0.377 0.156l-1.552 1.547c-0.097 0.101-0.233 0.156-0.373 0.149-0.010 0-0.035-0.010-0.030 0l-0.039-0.004c-0.117-0.008-0.227-0.060-0.309-0.143-0.086-0.083-0.139-0.195-0.15-0.315-0.001-0.024-0.004-0.047-0.009-0.070 0.002-0.14 0.060-0.273 0.16-0.37l2.015-2.016h7.779v5.333zM27.2 18.133h-2.133v-5.333h2.133v5.333zM30.933 20.267h-2.667v-9.6h2.667v9.6z"></path>
<path d="M25.6 13.333h1.067v1.067h-1.067v-1.067z"></path>
<path d="M5.333 13.333h1.067v1.067h-1.067v-1.067z"></path>
<path d="M9.223 21.71l0.754-0.754 3.017 3.017-0.754 0.754-3.017-3.017z"></path>
<path d="M8.091 22.841l0.754-0.754 3.771 3.771-0.754 0.754-3.771-3.771z"></path>
<path d="M17.067 9.067h4.267v1.067h-4.267v-1.067z"></path>
<path d="M17.067 7.467h5.333v1.067h-5.333v-1.067z"></path>
<path d="M8.533 3.733h1.067v1.067h-1.067v-1.067z"></path>
<path d="M9.6 4.8h1.067v1.067h-1.067v-1.067z"></path>
<path d="M7.467 4.8h1.067v1.067h-1.067v-1.067z"></path>
<path d="M8.533 5.867h1.067v1.067h-1.067v-1.067z"></path>
<path d="M26.667 1.6h1.067v1.067h-1.067v-1.067z"></path>
<path d="M27.733 2.667h1.067v1.067h-1.067v-1.067z"></path>
<path d="M25.6 2.667h1.067v1.067h-1.067v-1.067z"></path>
<path d="M26.667 3.733h1.067v1.067h-1.067v-1.067z"></path>
<path d="M18.667 3.2h1.067v1.067h-1.067v-1.067z"></path>
<path d="M19.733 4.267h1.067v1.067h-1.067v-1.067z"></path>
<path d="M17.6 4.267h1.067v1.067h-1.067v-1.067z"></path>
<path d="M18.667 5.333h1.067v1.067h-1.067v-1.067z"></path>
<path d="M25.067 24h1.067v1.067h-1.067v-1.067z"></path>
<path d="M26.133 25.067h1.067v1.067h-1.067v-1.067z"></path>
<path d="M24 25.067h1.067v1.067h-1.067v-1.067z"></path>
<path d="M25.067 26.133h1.067v1.067h-1.067v-1.067z"></path>
<path d="M17.6 27.2h1.067v1.067h-1.067v-1.067z"></path>
<path d="M18.667 28.267h1.067v1.067h-1.067v-1.067z"></path>
<path d="M16.533 28.267h1.067v1.067h-1.067v-1.067z"></path>
<path d="M17.6 29.333h1.067v1.067h-1.067v-1.067z"></path>
<path d="M4.267 25.067h1.067v1.067h-1.067v-1.067z"></path>
<path d="M5.333 26.133h1.067v1.067h-1.067v-1.067z"></path>
<path d="M3.2 26.133h1.067v1.067h-1.067v-1.067z"></path>
<path d="M4.267 27.2h1.067v1.067h-1.067v-1.067z"></path>
</symbol>
<symbol id="icon-europe" viewBox="0 0 32 32">
<path d="M31.531 6.628c-0.259 0-0.469 0.21-0.469 0.469l-0.001 16.139c-0.518-0.28-1.29-0.676-1.846-0.859-0.232-0.076-0.85-0.279-1.124 0.182-0.201 0.338-0.23 0.883-0.074 1.388 0.341 1.105 1.091 1.066 1.416 1.326 0.28 0.224 0.294 0.739 0.267 1.261-0.002 0.033-0.004 0.090-0.010 0.122-0.063 0.033-0.234 0.058-0.301 0.067-0.242 0.034-0.486 0.081-0.725 0.139-0.251 0.061-0.406 0.314-0.345 0.566s0.313 0.407 0.566 0.345c0.209-0.051 0.424-0.092 0.636-0.122 0.709-0.1 1.080-0.355 1.116-1.070 0.024-0.482 0.075-1.484-0.617-2.040-0.525-0.422-0.909-0.23-1.107-0.871-0.050-0.163-0.063-0.313-0.057-0.429 0.49 0.146 1.565 0.686 2.438 1.197 0.312 0.183 0.706-0.042 0.706-0.404l0-16.939c0-0.259-0.21-0.469-0.468-0.469z"></path>
<path d="M26.684 27.641c-0.692 0.388-0.937 0.668-1.133 0.668h-0.001c-0.358-0.003-0.593-0.537-2.43 0.050-0.206 0.066-1.044 0.345-1.316 0.212-0.114-0.056-0.581-0.643-0.671-0.968-0.046-0.168-0.019-0.349 0.065-0.422 0.228-0.199 0.532-0.087 1.048-0.941 0.074-0.122 0.143-0.237 0.219-0.319 0.249-0.27 0.71-0.349 1.2-0.413 0.352-0.046 0.636-0.074 0.886-0.099 0.588-0.059 1.014-0.101 1.731-0.303 0.407-0.115 0.677-0.404 0.763-0.815 0.087-0.419-0.046-1.010-0.268-1.192-0.67-0.548-1.301-0.314-1.678-0.175-0.078 0.029-0.194 0.072-0.235 0.075-0.032-0.070-0.044-0.114-0.048-0.138 0.15-0.106 1.224-0.64 1.4-1.633 0.096-0.542-0.116-1.26-0.722-1.302-0.491-0.034-1.108 0.39-1.366 0.619-0.294 0.262-0.524 0.555-0.773 0.787-0.19-0.164-0.434-0.254-0.69-0.249-0.593 0.013-0.748 0.424-0.814 0.599-0 0.001-0.001 0.002-0.001 0.003-0.144-0.055-0.492-0.179-0.791 0.12-0.359 0.358-0.364 0.7-0.698 2.581-0.070 0.238-0.787 0.952-1.071 1.11-0.242-0.001-0.622-0.005-0.797 0.002-0.77 0.033-1.027 0.613-0.819 1.036l0.444 0.901c-0.004 0-0.008 0-0.012 0-0.185 0.002-0.365 0.040-0.535 0.111-0.001-0.010-0.002-0.020-0.004-0.029-0.13-0.995-0.705-0.831-0.847-1.299-0.029-0.094-0.013-0.243 0.003-0.4 0.031-0.296 0.069-0.664-0.152-1.009-0.154-0.239-0.379-0.371-0.544-0.468l-2.541-1.492c-0.67-0.393-1.485 0.198-1.323 0.957 0.056 0.264 0.181 0.545 0.35 0.79 0.177 0.257 0.307 0.648 0.446 1.062 0.673 2.019 1.222 1.8 1.506 2.208-1.184 0.362-0.779 1.13-1.694 1.344-0.181 0.042-0.305 0.048-0.363 0.020-0.060-0.034-0.177-0.133-0.291-0.243 0.357-0.179 0.627-0.449 0.903-0.622 0.136-0.085 0.219-0.234 0.219-0.395 0.004-0.928-0.241-1.278-0.524-1.684-0.731-1.047-0.84-2.089-1.447-2.932-0.311-0.433-0.897-0.594-1.393-0.384-0.544 0.23-1.137 0.317-1.714 0.251-0.45-0.052-1.203-0.138-1.543 0.488-0.117 0.216-0.123 0.435-0.154 0.548-0.215 0.069-1.312-0.089-2.082 1.226-0.163 0.279-0.292 0.593-0.405 0.99-0.076 0.266-0.34 0.132-0.908 0.028-0.296-0.054-0.576-0.105-0.845-0.183-0.537-0.155-1.151-0.51-1.263-1.046-0.064-0.309 0.039-0.686 0.129-1.018l0.544-1.992c0.031-0.113 0.154-0.174 0.261-0.129l1.422 0.591c0.441 0.183 1.475 0.613 2.235 0.008 0.418-0.333 0.814-1.025 0.327-2.438-0.199-0.578-0.373-1.17-0.123-1.503 0.084-0.072 0.375-0.080 0.863-0.022 0.257 0.030 0.49-0.154 0.52-0.411s-0.154-0.49-0.411-0.52c-0.624-0.073-1.268-0.108-1.668 0.325-0.007 0.008-0.013 0.015-0.020 0.023-0.617 0.762-0.26 1.796-0.047 2.415 0.112 0.325 0.335 1.114-0.024 1.399-0.29 0.231-0.843 0.047-1.292-0.14l-1.422-0.591c-0.629-0.261-1.345 0.090-1.525 0.748l-0.544 1.991c-0.113 0.413-0.253 0.927-0.143 1.457 0.167 0.801 0.886 1.457 1.922 1.755 0.521 0.15 1.044 0.209 1.528 0.322 0.607 0.14 1.215-0.215 1.386-0.81 0.091-0.319 0.191-0.565 0.313-0.774 0.677-1.157 1.492-0.416 2.024-1.13 0.199-0.268 0.186-0.584 0.225-0.669 0.082-0.066 0.468-0.022 0.614-0.005 0.739 0.085 1.495-0.026 2.188-0.319 0.096-0.041 0.209-0.012 0.266 0.068 0.511 0.71 0.622 1.75 1.439 2.921 0.211 0.303 0.324 0.464 0.349 0.903-0.348 0.257-0.61 0.509-0.868 0.486-0.343-0.030-0.607 0.305-0.502 0.694 0.12 0.446 0.816 1.043 1.065 1.164 0.317 0.155 0.651 0.133 0.993 0.052 0.918-0.215 1.326-0.984 1.46-1.237 0.038-0.023 0.105-0.054 0.178-0.082 0.239 0.043 0.491-0.047 0.642-0.259 0.217-0.303 0.235-0.742 0.047-1.091-0.176-0.326-0.457-0.515-0.749-0.713-0.329-0.226-0.525-0.812-0.714-1.38-0.153-0.458-0.311-0.932-0.563-1.298-0.075-0.108-0.137-0.233-0.176-0.349l2.445 1.435c0.273 0.16 0.282 0.148 0.238 0.571-0.024 0.231-0.052 0.494 0.032 0.769 0.138 0.455 0.501 0.706 0.78 0.954 0.061 0.154 0.005 0.643 0.373 0.922 0.181 0.137 0.589 0.206 0.953 0.047 0.206-0.090 0.736 0.023 1.067-0.394 0.211-0.266 0.203-0.631 0.003-0.92l-0.329-0.668c0.201-0.002 0.492 0.001 0.696 0.001 0.105 0 0.385 0 1.113-0.707 0.48-0.467 0.751-0.861 0.806-1.172 0.328-1.845 0.318-1.819 0.362-1.947 0.148 0.045 0.361 0.079 0.595-0.027 0.319-0.144 0.425-0.403 0.482-0.553 0.015 0.007 0.028 0.019 0.038 0.033 0.205 0.297 0.474 0.322 0.617 0.31 0.131-0.011 0.258-0.060 0.367-0.143 0.408-0.309 0.687-0.699 1.006-0.983 0.172-0.152 0.395-0.281 0.546-0.344 0.007 0.051 0.007 0.115-0.010 0.189-0.069 0.313-0.391 0.645-0.907 0.937-0.242 0.137-0.761 0.548-0.35 1.4 0.148 0.308 0.462 0.502 0.818 0.508 0.207 0.003 0.394-0.066 0.575-0.133 0.302-0.112 0.473-0.165 0.677-0.038 0.032 0.114 0.054 0.291 0.012 0.381-0.008 0.016-0.018 0.039-0.086 0.058-0.637 0.18-1.008 0.217-1.569 0.272-0.257 0.026-0.548 0.054-0.914 0.102-0.505 0.066-1.269 0.165-1.769 0.706-0.141 0.152-0.243 0.321-0.333 0.47-0.389 0.644-0.398 0.313-0.863 0.72-0.358 0.313-0.496 0.854-0.351 1.377 0.135 0.489 0.718 1.343 1.161 1.56 0.585 0.287 1.396 0.037 2.014-0.16 1.639-0.523 1.337-0.012 2.138-0.005h0.009c0.578 0 0.845-0.369 1.591-0.788 0.226-0.127 0.306-0.412 0.179-0.638s-0.412-0.306-0.638-0.179z"></path>
<path d="M31.528 1.875c-1.040 0.007-3.088 0.016-3.399 0.003-0.824-0.035-1.64 0.269-2.24 0.835l-2.766 2.609c-0.181 0.171-0.485 0.458-0.518 0.886-0.040 0.52 0.314 0.716 0.056 1-0.463 0.51-1.438-0.017-1.224-0.254 0.194-0.215 0.355-0.456 0.479-0.718 0.28-0.59-0.023-1.296-0.646-1.503-1.869-0.621-2.841-1.042-3.895-0.82-1.35 0.283-2.148 1.507-2.804 2.69-1.312 2.364-1.658 1.939-2.56 2.579-0.218 0.154-1.643 1.659-1.282 2.517 0.188 0.448 0.62 0.75 1.126 0.789 0.421 0.032 0.785-0.080 1.1-0.251-0.028 0.792 0.028 1.762 0.404 2.241 0.317 0.404 0.868 0.51 1.419 0.035 0.667-0.576 1.379-2.089 1.404-2.756 0.021-0.574-0.283-0.847-0.447-0.993-0.011-0.010-0.025-0.022-0.037-0.034 0.051-0.382 0.209-0.576 0.464-1.47 0.162-0.567 0.302-1.057 0.736-1.328 0.171-0.107 0.384-0.098 0.517 0.022 0.045 0.041 0.166 0.15 0.002 0.51-0.18 0.393-0.53 0.755-0.743 1.255-0.27 0.634-0.199 1.51 0.465 1.886 1.023 0.58 1.881-0.584 2.534-0.488-0.116 0.562-0.268 1.156-0.603 1.596-0.4 0.525-1.006 0.661-1.36 0.489-0.086-0.042-0.184-0.056-0.279-0.041-0.422 0.068-0.87 0.46-0.92 1.183-0.024 0.344 0.041 0.684-0.014 0.916-0.153 0.651-1.254 0.792-1.897 0.819l-1.862 0.076c-0.008-0.407 0.293-1.316-0.233-1.815-0.49-0.465-1.691-0.364-1.962 0.325-0.097 0.247-0.080 0.517-0.063 0.778 0.032 0.514 0.035 0.473-0.324 0.708-1.192 0.78-1.053 1.269-1.358 1.547-0.070 0.064-0.185 0.109-0.277 0.141-0.244 0.085-0.374 0.352-0.288 0.597s0.352 0.374 0.597 0.288c0.177-0.061 0.404-0.155 0.6-0.333 0.542-0.493 0.239-0.801 1.24-1.456 1.099-0.718 0.664-1.297 0.739-1.894 0.098-0.052 0.333-0.066 0.438-0.025 0.11 0.215-0.056 0.721-0.044 1.169 0.015 0.592 0.323 0.933 0.97 0.906l1.867-0.076c2.011-0.082 2.616-0.883 2.771-1.541 0.097-0.412 0.015-0.759 0.036-1.065 0.009-0.125 0.049-0.219 0.084-0.273 0.828 0.256 1.758-0.163 2.285-0.855 0.521-0.684 0.693-1.553 0.832-2.252 0.067-0.341-0.335-0.879-1.096-0.852-0.915 0.033-1.576 0.824-1.949 0.612-0.154-0.087-0.184-0.422-0.064-0.703 0.164-0.385 0.512-0.751 0.733-1.232 0.287-0.626 0.204-1.208-0.227-1.597-0.442-0.399-1.117-0.448-1.642-0.12-0.74 0.463-0.952 1.208-1.14 1.866-0.252 0.882-0.457 1.152-0.503 1.705-0.055 0.647 0.499 0.696 0.487 1.013-0.017 0.466-0.721 1.886-1.171 2.15-0.158-0.238-0.277-1.218-0.102-2.574 0.055-0.428-0.453-0.697-0.776-0.41-0.463 0.411-0.825 0.699-1.27 0.666-0.14-0.011-0.263-0.084-0.321-0.191 0.024-0.31 0.709-1.234 0.948-1.415 0.788-0.559 1.378-0.258 2.837-2.888 0.503-0.907 1.16-2.014 2.177-2.227 0.775-0.163 1.602 0.193 3.407 0.792 0.087 0.029 0.134 0.128 0.095 0.211-0.248 0.522-0.678 0.688-0.596 1.346 0.127 1.016 1.924 1.715 2.882 0.658 0.652-0.719 0.173-1.411 0.184-1.559 0.005-0.067 0.172-0.224 0.226-0.276l2.766-2.609c0.417-0.393 0.984-0.605 1.557-0.58 0.316 0.014 2.103 0.006 2.973 0.001v2.235c0 0.259 0.21 0.469 0.469 0.469s0.469-0.21 0.469-0.468v-2.707c0-0.25-0.195-0.464-0.472-0.469z"></path>
</symbol>
</defs>
</svg>
