<svg aria-hidden="true" style="position: absolute; width: 0; height: 0; overflow: hidden;" version="1.1" xmlns="http://www.w3.org/2000/svg" xmlns:xlink="http://www.w3.org/1999/xlink">
<defs>
<symbol id="icon-behance" viewBox="0 0 39 32">
<title>behance</title>
<path d="M15.643 14.825c1.988-0.95 3.025-2.388 3.025-4.625 0-4.412-3.287-5.487-7.081-5.487h-10.444v22.15h10.738c4.025 0 7.806-1.931 7.806-6.431 0-2.781-1.319-4.838-4.044-5.606zM6.012 8.494h4.569c1.756 0 3.338 0.494 3.338 2.531 0 1.881-1.231 2.637-2.969 2.637h-4.938v-5.169zM11.218 23.1h-5.206v-6.1h5.306c2.144 0 3.5 0.894 3.5 3.163 0 2.238-1.619 2.937-3.6 2.937zM33.624 8.056h-8.981v-2.181h8.981v2.181zM37.143 19.075c0-4.744-2.775-8.7-7.806-8.7-4.888 0-8.206 3.675-8.206 8.488 0 4.994 3.144 8.419 8.206 8.419 3.831 0 6.312-1.725 7.506-5.394h-3.888c-0.419 1.369-2.144 2.094-3.481 2.094-2.581 0-3.937-1.513-3.937-4.081h11.569c0.019-0.262 0.038-0.544 0.038-0.825zM25.543 17.125c0.144-2.106 1.544-3.425 3.656-3.425 2.213 0 3.325 1.3 3.512 3.425h-7.169z"></path>
</symbol>
<symbol id="icon-facebook" viewBox="0 0 21 32">
<title>facebook</title>
<path d="M17.446 18l0.889-5.791h-5.557v-3.758c0-1.584 0.776-3.129 3.265-3.129h2.526v-4.931c0 0-2.293-0.391-4.484-0.391-4.576 0-7.567 2.774-7.567 7.795v4.414h-5.087v5.791h5.087v14h6.261v-14h4.668z"></path>
</symbol>
<symbol id="icon-instagram" viewBox="0 0 30 32">
<title>instagram</title>
<path d="M15.72 8.812c-3.975 0-7.181 3.206-7.181 7.181s3.206 7.181 7.181 7.181c3.975 0 7.181-3.206 7.181-7.181s-3.206-7.181-7.181-7.181zM15.72 20.663c-2.569 0-4.669-2.094-4.669-4.669s2.094-4.669 4.669-4.669c2.575 0 4.669 2.094 4.669 4.669s-2.1 4.669-4.669 4.669zM24.87 8.519c0 0.931-0.75 1.675-1.675 1.675-0.931 0-1.675-0.75-1.675-1.675s0.75-1.675 1.675-1.675c0.925 0 1.675 0.75 1.675 1.675zM29.627 10.219c-0.106-2.244-0.619-4.231-2.262-5.869-1.638-1.638-3.625-2.15-5.869-2.263-2.313-0.131-9.244-0.131-11.556 0-2.237 0.106-4.225 0.619-5.869 2.256s-2.15 3.625-2.263 5.869c-0.131 2.313-0.131 9.244 0 11.556 0.106 2.244 0.619 4.231 2.263 5.869s3.625 2.15 5.869 2.262c2.313 0.131 9.244 0.131 11.556 0 2.244-0.106 4.231-0.619 5.869-2.262 1.637-1.637 2.15-3.625 2.262-5.869 0.131-2.313 0.131-9.238 0-11.55zM26.639 24.25c-0.488 1.225-1.431 2.169-2.663 2.662-1.844 0.731-6.219 0.563-8.256 0.563s-6.419 0.163-8.256-0.563c-1.225-0.488-2.169-1.431-2.662-2.662-0.731-1.844-0.563-6.219-0.563-8.256s-0.162-6.419 0.563-8.256c0.487-1.225 1.431-2.169 2.662-2.662 1.844-0.731 6.219-0.563 8.256-0.563s6.419-0.162 8.256 0.563c1.225 0.487 2.169 1.431 2.663 2.662 0.731 1.844 0.563 6.219 0.563 8.256s0.169 6.419-0.563 8.256z"></path>
</symbol>
<symbol id="icon-pinterest" viewBox="0 0 25 32">
<title>pinterest</title>
<path d="M12.75 0.406c-6.412 0-12.75 4.275-12.75 11.194 0 4.4 2.475 6.9 3.975 6.9 0.619 0 0.975-1.725 0.975-2.212 0-0.581-1.481-1.819-1.481-4.238 0-5.025 3.825-8.588 8.775-8.588 4.256 0 7.406 2.419 7.406 6.862 0 3.319-1.331 9.544-5.644 9.544-1.556 0-2.887-1.125-2.887-2.738 0-2.363 1.65-4.65 1.65-7.088 0-4.138-5.869-3.388-5.869 1.613 0 1.050 0.131 2.213 0.6 3.169-0.862 3.712-2.625 9.244-2.625 13.069 0 1.181 0.169 2.344 0.281 3.525 0.213 0.238 0.106 0.213 0.431 0.094 3.15-4.312 3.037-5.156 4.463-10.8 0.769 1.462 2.756 2.25 4.331 2.25 6.638 0 9.619-6.469 9.619-12.3 0-6.206-5.363-10.256-11.25-10.256z"></path>
</symbol>
<symbol id="icon-youtube" viewBox="0 0 37 32">
<title>youtube</title>
<path d="M34.925 7.755c-0.392-1.478-1.549-2.642-3.018-3.037-2.662-0.718-13.336-0.718-13.336-0.718s-10.674 0-13.336 0.718c-1.469 0.395-2.625 1.559-3.018 3.037-0.713 2.679-0.713 8.269-0.713 8.269s0 5.59 0.713 8.269c0.393 1.478 1.549 2.594 3.018 2.989 2.662 0.718 13.336 0.718 13.336 0.718s10.674 0 13.336-0.718c1.469-0.395 2.625-1.511 3.018-2.989 0.713-2.679 0.713-8.269 0.713-8.269s0-5.59-0.713-8.269zM15.081 21.099v-10.15l8.921 5.075-8.921 5.075z"></path>
</symbol>
</defs>
</svg>
