<svg width="17" height="14" viewBox="0 0 17 14" fill="none" xmlns="http://www.w3.org/2000/svg">
<g clip-path="url(#clip0)">
<path d="M6.84375 6.48593C7.71328 6.0703 8.16719 5.44139 8.16719 4.46249C8.16719 2.53202 6.72891 2.06171 5.06914 2.06171H0.5V11.7523H5.19766C6.95859 11.7523 8.61289 10.9074 8.61289 8.93866C8.61289 7.72186 8.03594 6.82225 6.84375 6.48593ZM2.63008 3.716H4.62891C5.39727 3.716 6.08906 3.93202 6.08906 4.82343C6.08906 5.64647 5.55039 5.97733 4.79023 5.97733H2.63008V3.716ZM4.90781 10.1062H2.63008V7.43749H4.95156C5.88945 7.43749 6.48281 7.8285 6.48281 8.82108C6.48281 9.79999 5.77461 10.1062 4.90781 10.1062ZM14.7105 3.5246H10.7812V2.5703H14.7105V3.5246ZM16.25 8.3453C16.25 6.26991 15.0359 4.53905 12.8348 4.53905C10.6965 4.53905 9.24453 6.14686 9.24453 8.25233C9.24453 10.4371 10.6199 11.9355 12.8348 11.9355C14.5109 11.9355 15.5965 11.1808 16.1188 9.57577H14.418C14.2348 10.1746 13.4801 10.4918 12.8949 10.4918C11.7656 10.4918 11.1723 9.83007 11.1723 8.70624H16.2336C16.2418 8.59139 16.25 8.46835 16.25 8.3453ZM11.175 7.49218C11.2379 6.57069 11.8504 5.99374 12.7746 5.99374C13.7426 5.99374 14.2293 6.56249 14.3113 7.49218H11.175Z" fill="black"/>
</g>
<defs>
<clipPath id="clip0">
<rect x="0.5" width="15.75" height="14" fill="white"/>
</clipPath>
</defs>
</svg>
