<svg width="13" height="14" viewBox="0 0 13 14" fill="none" xmlns="http://www.w3.org/2000/svg">
<g clip-path="url(#clip0)">
<path d="M6.87771 3.85546C5.13865 3.85546 3.73591 5.2582 3.73591 6.99726C3.73591 8.73632 5.13865 10.1391 6.87771 10.1391C8.61677 10.1391 10.0195 8.73632 10.0195 6.99726C10.0195 5.2582 8.61677 3.85546 6.87771 3.85546ZM6.87771 9.03984C5.75388 9.03984 4.83513 8.12382 4.83513 6.99726C4.83513 5.8707 5.75115 4.95468 6.87771 4.95468C8.00427 4.95468 8.92029 5.8707 8.92029 6.99726C8.92029 8.12382 8.00154 9.03984 6.87771 9.03984ZM10.8808 3.72695C10.8808 4.13437 10.5527 4.45976 10.148 4.45976C9.7406 4.45976 9.41521 4.13163 9.41521 3.72695C9.41521 3.32226 9.74334 2.99413 10.148 2.99413C10.5527 2.99413 10.8808 3.32226 10.8808 3.72695ZM12.9617 4.4707C12.9152 3.48906 12.691 2.61952 11.9719 1.90312C11.2554 1.18671 10.3859 0.962494 9.40427 0.913275C8.39255 0.855853 5.36013 0.855853 4.34841 0.913275C3.36951 0.95976 2.49998 1.18398 1.78084 1.90038C1.06169 2.61679 0.84021 3.48632 0.790991 4.46796C0.733569 5.47968 0.733569 8.5121 0.790991 9.52382C0.837476 10.5055 1.06169 11.375 1.78084 12.0914C2.49998 12.8078 3.36677 13.032 4.34841 13.0812C5.36013 13.1387 8.39255 13.1387 9.40427 13.0812C10.3859 13.0348 11.2554 12.8105 11.9719 12.0914C12.6883 11.375 12.9125 10.5055 12.9617 9.52382C13.0191 8.5121 13.0191 5.48242 12.9617 4.4707ZM11.6547 10.6094C11.4414 11.1453 11.0285 11.5582 10.4898 11.7742C9.68318 12.0941 7.76912 12.0203 6.87771 12.0203C5.9863 12.0203 4.06951 12.0914 3.2656 11.7742C2.72966 11.5609 2.31677 11.148 2.10076 10.6094C1.78084 9.80273 1.85466 7.88866 1.85466 6.99726C1.85466 6.10585 1.78357 4.18906 2.10076 3.38515C2.31404 2.84921 2.72693 2.43632 3.2656 2.22031C4.07224 1.90038 5.9863 1.97421 6.87771 1.97421C7.76912 1.97421 9.68591 1.90312 10.4898 2.22031C11.0258 2.43359 11.4386 2.84648 11.6547 3.38515C11.9746 4.19179 11.9008 6.10585 11.9008 6.99726C11.9008 7.88866 11.9746 9.80546 11.6547 10.6094Z" fill="black"/>
</g>
<defs>
<clipPath id="clip0">
<rect x="0.75" width="12.25" height="14" fill="white"/>
</clipPath>
</defs>
</svg>
