<svg width="11" height="14" viewBox="0 0 11 14" fill="none" xmlns="http://www.w3.org/2000/svg">
<g clip-path="url(#clip0)">
<path d="M5.57812 0.177734C2.77266 0.177734 0 2.04805 0 5.075C0 7 1.08281 8.09375 1.73906 8.09375C2.00977 8.09375 2.16562 7.33906 2.16562 7.12578C2.16562 6.87148 1.51758 6.33008 1.51758 5.27188C1.51758 3.07344 3.19102 1.51484 5.35664 1.51484C7.21875 1.51484 8.59688 2.57305 8.59688 4.51719C8.59688 5.96914 8.01445 8.69258 6.12773 8.69258C5.44688 8.69258 4.86445 8.20039 4.86445 7.49492C4.86445 6.46133 5.58633 5.46055 5.58633 4.39414C5.58633 2.58398 3.01875 2.91211 3.01875 5.09961C3.01875 5.55898 3.07617 6.06758 3.28125 6.48594C2.90391 8.11016 2.13281 10.5301 2.13281 12.2035C2.13281 12.7203 2.20664 13.2289 2.25586 13.7457C2.34883 13.8496 2.30234 13.8387 2.44453 13.7867C3.82266 11.9 3.77344 11.5309 4.39687 9.06172C4.7332 9.70156 5.60273 10.0461 6.2918 10.0461C9.1957 10.0461 10.5 7.21602 10.5 4.66484C10.5 1.94961 8.15391 0.177734 5.57812 0.177734Z" fill="black"/>
</g>
<defs>
<clipPath id="clip0">
<rect width="10.5" height="14" fill="white"/>
</clipPath>
</defs>
</svg>
