<svg width="16" height="14" viewBox="0 0 16 14" fill="none" xmlns="http://www.w3.org/2000/svg">
<g clip-path="url(#clip0)">
<path d="M15.2796 3.39289C15.1079 2.74621 14.6019 2.23691 13.9594 2.06407C12.7948 1.75 8.125 1.75 8.125 1.75C8.125 1.75 3.45524 1.75 2.29064 2.06407C1.64814 2.23694 1.14212 2.74621 0.970372 3.39289C0.658325 4.56504 0.658325 7.01061 0.658325 7.01061C0.658325 7.01061 0.658325 9.45618 0.970372 10.6283C1.14212 11.275 1.64814 11.7631 2.29064 11.9359C3.45524 12.25 8.125 12.25 8.125 12.25C8.125 12.25 12.7948 12.25 13.9594 11.9359C14.6019 11.7631 15.1079 11.275 15.2796 10.6283C15.5917 9.45618 15.5917 7.01061 15.5917 7.01061C15.5917 7.01061 15.5917 4.56504 15.2796 3.39289ZM6.59772 9.231V4.79021L10.5007 7.01066L6.59772 9.231Z" fill="black"/>
</g>
<defs>
<clipPath id="clip0">
<rect x="0.25" width="15.75" height="14" fill="white"/>
</clipPath>
</defs>
</svg>
